# xmcd
#
# Track frame offsets: 
#        180
#        26970
#        51095
#        78367
#
# Disc length: 1260 seconds
#
# Revision: 6
# Processed by: cddbd v1.5.2PL0 Copyright (c) Steve Scherf et al.
# Submitted via: ExactAudioCopy v1.1
#
DISCID=2b04ea04
DTITLE=張惠妹 - 妹力四射
DYEAR=1997
DGENRE=Pop
TTITLE0=I Don't Want To Talk About It
TTITLE1=What's Up
TTITLE2=The Power Of Love
TTITLE3=Walking By Myself
EXTD=YEAR: 1998
EXTT0=
EXTT1=
EXTT2=
EXTT3=
PLAYORDER=
